<svg width="81" height="71" viewBox="0 0 81 71" fill="none" xmlns="http://www.w3.org/2000/svg">
<path d="M84.3054 -74.9379L84.2917 -74.9312L71.0277 -68.5377C71.0269 -68.5373 71.0261 -68.537 71.0254 -68.5366C70.4615 -68.2644 69.8467 -68.1137 69.2209 -68.0944C68.5951 -68.075 67.9722 -68.1874 67.3926 -68.4243C67.3918 -68.4246 67.391 -68.4249 67.3902 -68.4253L53.6351 -74.0368C53.6348 -74.0369 53.6345 -74.037 53.6342 -74.0372C53.1694 -74.2263 52.6582 -74.2704 52.1678 -74.1634C51.6771 -74.0564 51.2304 -73.8033 50.8864 -73.4374C50.5424 -73.0715 50.3174 -72.61 50.2409 -72.1136C50.1645 -71.6176 50.24 -71.1101 50.4576 -70.6578C50.4576 -70.6577 50.4576 -70.6576 50.4577 -70.6575C50.4578 -70.6573 50.4579 -70.6571 50.458 -70.6569L56.9067 -57.2783C56.9072 -57.2773 56.9077 -57.2763 56.9082 -57.2753C57.1818 -56.7109 57.3333 -56.095 57.3527 -55.468L55.1982 -55.4014L57.3527 -55.468C57.3721 -54.8411 57.259 -54.2171 57.0208 -53.6369C57.0203 -53.6358 57.0199 -53.6347 57.0194 -53.6336L51.4093 -39.8819C51.4092 -39.8817 51.4091 -39.8815 51.409 -39.8813C51.2197 -39.4164 51.1755 -38.905 51.2825 -38.4145C51.3894 -37.9238 51.6425 -37.4771 52.0083 -37.1331L84.3054 -74.9379ZM84.3054 -74.9379L84.3191 -74.9447M84.3054 -74.9379L84.3191 -74.9447M84.3191 -74.9447C84.7401 -75.155 85.2105 -75.2467 85.6797 -75.2097M84.3191 -74.9447L85.6797 -75.2097M69.9782 -43.5997L69.9782 -43.5997C70.6053 -43.6191 71.2294 -43.506 71.8098 -43.2676C71.8107 -43.2672 71.8116 -43.2668 71.8126 -43.2665L85.564 -37.6564C85.5642 -37.6563 85.5645 -37.6562 85.5647 -37.6562C85.5648 -37.6561 85.5648 -37.6561 85.5649 -37.6561C86.0298 -37.4669 86.541 -37.4229 87.0313 -37.5298C87.522 -37.6368 87.9688 -37.8899 88.3127 -38.2558C88.6567 -38.6217 88.8817 -39.0833 88.9582 -39.5796C89.0347 -40.0759 88.959 -40.5838 88.7412 -41.0363L82.2907 -54.4185L69.9782 -43.5997ZM69.9782 -43.5997C69.3511 -43.5804 68.7351 -43.4288 68.1706 -43.1551M69.9782 -43.5997L68.1706 -43.1551M84.0018 -56.2919L81.8473 -56.2253C81.828 -56.8511 81.9404 -57.474 82.1773 -58.0536L84.0018 -56.2919ZM84.0018 -56.2919L81.8473 -56.2253C81.8667 -55.5994 82.0174 -54.9846 82.2896 -54.4208L84.0018 -56.2919ZM105.892 45.6949L105.892 45.6955C105.67 46.2393 105.618 46.8377 105.743 47.4116C105.867 47.9854 106.163 48.5079 106.591 48.9103C107.019 49.3122 107.559 49.575 108.139 49.6642C108.719 49.7534 109.313 49.6645 109.843 49.4093L109.843 49.409L127.971 40.6736C128.562 40.3882 129.207 40.2303 129.863 40.2101C130.519 40.1898 131.172 40.3076 131.78 40.5558L150.411 48.1544C150.955 48.3758 151.553 48.4273 152.127 48.3022C152.7 48.177 153.223 47.8811 153.625 47.4533C154.027 47.0255 154.29 46.486 154.38 45.9057C154.469 45.3255 154.381 44.7317 154.126 44.2026L145.391 26.076C145.106 25.4848 144.948 24.8402 144.928 24.184L147.082 24.1174L144.928 24.184C144.907 23.5279 145.025 22.8748 145.273 22.267L152.872 3.63439L152.873 3.63293C153.118 3.0335 153.156 2.3694 152.98 1.74605C152.806 1.12851 152.433 0.586023 151.919 0.202972C151.473 -0.109648 150.951 -0.297084 150.408 -0.339642C149.858 -0.382681 149.307 -0.276001 148.814 -0.0309483L148.803 -0.0253651L148.791 -0.0199135L130.794 8.65569C130.793 8.65583 130.793 8.65596 130.793 8.6561C130.202 8.94118 129.557 9.09893 128.902 9.11921C128.246 9.13948 127.593 9.02185 126.986 8.77391C126.985 8.77375 126.985 8.77359 126.985 8.77344L108.353 1.1749L105.892 45.6949ZM105.892 45.6949L113.491 27.0622M105.892 45.6949L113.491 27.0622M113.491 27.0622C113.739 26.4545 113.857 25.8013 113.837 25.1452C113.816 24.4895 113.659 23.8453 113.374 23.2544C113.374 23.254 113.373 23.2536 113.373 23.2532L104.638 5.12663M113.491 27.0622L104.638 5.12663M104.638 5.12663C104.638 5.12629 104.638 5.12594 104.638 5.1256L104.638 5.12663ZM85.6797 -75.2097C86.1442 -75.1732 86.5901 -75.012 86.9706 -74.7433M85.6797 -75.2097L86.9706 -74.7433M86.9706 -74.7433C87.4109 -74.4161 87.7307 -73.9522 87.8798 -73.424C88.0301 -72.8916 87.9986 -72.3243 87.7901 -71.8119L86.9706 -74.7433ZM68.1706 -43.1551C68.1697 -43.1547 68.1688 -43.1542 68.1679 -43.1538M68.1706 -43.1551L68.1679 -43.1538M68.1679 -43.1538L54.789 -36.7049C54.7888 -36.7048 54.7886 -36.7047 54.7884 -36.7046C54.3361 -36.4869 53.8284 -36.4112 53.3322 -36.4877C52.8359 -36.5641 52.3744 -36.7891 52.0085 -37.1329L68.1679 -43.1538ZM6.87313 66.3242L6.86521 66.3167L6.85719 66.3093C6.00732 65.5184 5.41904 64.4871 5.17096 63.3531C4.92289 62.219 5.02682 61.0362 5.46888 59.9628L5.47155 59.9563L18.7361 27.4439L18.7375 27.4405C19.1168 26.5061 19.2967 25.5028 19.2655 24.4948C19.2344 23.4869 18.9929 22.4966 18.5565 21.5874L18.5551 21.5844L3.30708 -10.0599L3.30632 -10.0615C2.80035 -11.1094 2.62402 -12.286 2.80058 -13.4362C2.97715 -14.5863 3.49832 -15.6559 4.2953 -16.5037C5.09229 -17.3516 6.12763 -17.9378 7.26468 -18.1851C8.40172 -18.4324 9.58702 -18.3291 10.6641 -17.8888L10.6655 -17.8882L43.1778 -4.62371L43.1812 -4.62233C44.1156 -4.24297 45.1189 -4.06311 46.1269 -4.09427C47.1349 -4.12544 48.1252 -4.36694 49.0343 -4.80327L49.0373 -4.80472L80.6816 -20.0527L80.6832 -20.0535C81.7311 -20.5594 82.9077 -20.7358 84.0579 -20.5592C85.208 -20.3826 86.2776 -19.8615 87.1255 -19.0645C87.9733 -18.2675 88.5595 -17.2321 88.8068 -16.0951C89.0541 -14.9581 88.9508 -13.7728 88.5105 -12.6956L88.51 -12.6943L75.2454 19.818L75.2441 19.8214C74.8647 20.7558 74.6848 21.7592 74.716 22.7671C74.7472 23.7751 74.9887 24.7654 75.425 25.6745L75.4264 25.6775L90.5812 57.13L90.587 57.142L90.5929 57.1539C91.1335 58.2414 91.3259 59.469 91.1438 60.6697C90.9622 61.8676 90.4167 62.9806 89.5814 63.8579C88.7884 64.6738 87.7692 65.2336 86.6552 65.465C85.5386 65.6969 84.3781 65.5884 83.324 65.1534L83.3161 65.1502L50.8037 51.8857L50.8003 51.8843C49.8659 51.5049 48.8626 51.3251 47.8546 51.3562C46.8467 51.3874 45.8564 51.6289 44.9472 52.0652L44.9442 52.0667L13.2999 67.3146L13.2932 67.3179C12.2491 67.8254 11.0751 68.0022 9.92784 67.8246C8.78064 67.6471 7.71493 67.1236 6.87313 66.3242ZM87.7897 -71.8109L82.1782 -58.0559L87.7897 -71.8109Z" fill="#FF747F" stroke="black" stroke-width="4.31104"/>
</svg>
