<svg width="26" height="26" viewBox="0 0 26 26" fill="none" xmlns="http://www.w3.org/2000/svg">
<path d="M23.0759 0.136719C23.8217 0.136719 24.537 0.43298 25.0643 0.960329C25.5917 1.48768 25.8879 2.20292 25.8879 2.9487V22.6326C25.8879 23.3784 25.5917 24.0936 25.0643 24.6209C24.537 25.1483 23.8217 25.4446 23.0759 25.4446H3.39206C2.64628 25.4446 1.93104 25.1483 1.40369 24.6209C0.87634 24.0936 0.580078 23.3784 0.580078 22.6326V2.9487C0.580078 2.20292 0.87634 1.48768 1.40369 0.960329C1.93104 0.43298 2.64628 0.136719 3.39206 0.136719H23.0759ZM22.3729 21.9296V14.4778C22.3729 13.2622 21.89 12.0964 21.0305 11.2368C20.1709 10.3772 19.005 9.8943 17.7894 9.8943C16.5943 9.8943 15.2024 10.6254 14.5275 11.7221V10.1614H10.6048V21.9296H14.5275V14.998C14.5275 13.9154 15.3992 13.0297 16.4818 13.0297C17.0039 13.0297 17.5046 13.237 17.8737 13.6062C18.2428 13.9753 18.4502 14.476 18.4502 14.998V21.9296H22.3729ZM6.03532 7.95403C6.66178 7.95403 7.26258 7.70517 7.70556 7.2622C8.14853 6.81922 8.39739 6.21842 8.39739 5.59196C8.39739 4.28439 7.3429 3.21584 6.03532 3.21584C5.40514 3.21584 4.80076 3.46618 4.35515 3.91179C3.90954 4.3574 3.6592 4.96178 3.6592 5.59196C3.6592 6.89954 4.72775 7.95403 6.03532 7.95403ZM7.98965 21.9296V10.1614H4.09506V21.9296H7.98965Z" fill="black"/>
</svg>
