<svg width="29" height="29" viewBox="0 0 29 29" fill="none" xmlns="http://www.w3.org/2000/svg">
<path d="M8.31491 0.72998H20.1252C24.6244 0.72998 28.28 4.38556 28.28 8.88473V20.6951C28.28 22.8578 27.4208 24.932 25.8915 26.4613C24.3622 27.9906 22.288 28.8498 20.1252 28.8498H8.31491C3.81573 28.8498 0.160156 25.1942 0.160156 20.6951V8.88473C0.160156 6.72196 1.01932 4.64776 2.54863 3.11845C4.07794 1.58914 6.15213 0.72998 8.31491 0.72998ZM8.03371 3.54196C6.6913 3.54196 5.40387 4.07523 4.45464 5.02446C3.50541 5.97369 2.97214 7.26112 2.97214 8.60353V20.9763C2.97214 23.7742 5.23579 26.0378 8.03371 26.0378H20.4064C21.7488 26.0378 23.0363 25.5046 23.9855 24.5553C24.9347 23.6061 25.468 22.3187 25.468 20.9763V8.60353C25.468 5.80561 23.2044 3.54196 20.4064 3.54196H8.03371ZM21.6015 5.65095C22.0676 5.65095 22.5147 5.83611 22.8443 6.16571C23.1739 6.4953 23.359 6.94232 23.359 7.40844C23.359 7.87455 23.1739 8.32158 22.8443 8.65117C22.5147 8.98076 22.0676 9.16593 21.6015 9.16593C21.1354 9.16593 20.6884 8.98076 20.3588 8.65117C20.0292 8.32158 19.844 7.87455 19.844 7.40844C19.844 6.94232 20.0292 6.4953 20.3588 6.16571C20.6884 5.83611 21.1354 5.65095 21.6015 5.65095ZM14.2201 7.75994C16.0845 7.75994 17.8726 8.50059 19.191 9.81896C20.5094 11.1373 21.25 12.9254 21.25 14.7899C21.25 16.6544 20.5094 18.4424 19.191 19.7608C17.8726 21.0792 16.0845 21.8198 14.2201 21.8198C12.3556 21.8198 10.5675 21.0792 9.24914 19.7608C7.93077 18.4424 7.19011 16.6544 7.19011 14.7899C7.19011 12.9254 7.93077 11.1373 9.24914 9.81896C10.5675 8.50059 12.3556 7.75994 14.2201 7.75994ZM14.2201 10.5719C13.1014 10.5719 12.0285 11.0163 11.2375 11.8073C10.4465 12.5984 10.0021 13.6712 10.0021 14.7899C10.0021 15.9086 10.4465 16.9814 11.2375 17.7725C12.0285 18.5635 13.1014 19.0079 14.2201 19.0079C15.3387 19.0079 16.4116 18.5635 17.2026 17.7725C17.9937 16.9814 18.438 15.9086 18.438 14.7899C18.438 13.6712 17.9937 12.5984 17.2026 11.8073C16.4116 11.0163 15.3387 10.5719 14.2201 10.5719Z" fill="black"/>
</svg>
